<?xml version="1.0" encoding="UTF-8" standalone="no"?>
<!-- Created with Inkscape (http://www.inkscape.org/) -->

<svg
   xmlns:dc="http://purl.org/dc/elements/1.1/"
   xmlns:cc="http://creativecommons.org/ns#"
   xmlns:rdf="http://www.w3.org/1999/02/22-rdf-syntax-ns#"
   xmlns:svg="http://www.w3.org/2000/svg"
   xmlns="http://www.w3.org/2000/svg"
   xmlns:sodipodi="http://sodipodi.sourceforge.net/DTD/sodipodi-0.dtd"
   xmlns:inkscape="http://www.inkscape.org/namespaces/inkscape"
   viewBox="0 0 210 297"
   version="1.1"
   id="svg8"
   inkscape:version="0.92.0 r15299"
   sodipodi:docname="Logo.svg">
  <defs
     id="defs2">
    <inkscape:perspective
       sodipodi:type="inkscape:persp3d"
       inkscape:vp_x="-474.91603 : 619.82826 : 1"
       inkscape:vp_y="0 : 4578.3098 : 0"
       inkscape:vp_z="2519.1567 : 1006.4993 : 1"
       inkscape:persp3d-origin="868.26668 : 393.20193 : 1"
       id="perspective74" />
    <inkscape:perspective
       sodipodi:type="inkscape:persp3d"
       inkscape:vp_x="10.751449 : 179.73062 : 1"
       inkscape:vp_y="0 : 656.77044 : 0"
       inkscape:vp_z="301.71406 : 235.19959 : 1"
       inkscape:persp3d-origin="141.28133 : 147.22047 : 1"
       id="perspective16" />
    <filter
       inkscape:collect="always"
       style="color-interpolation-filters:sRGB"
       id="filter4801"
       x="-0.076231447"
       width="1.1524629"
       y="-0.18516555"
       height="1.3703311">
      <feGaussianBlur
         inkscape:collect="always"
         stdDeviation="5.256843"
         id="feGaussianBlur4803" />
    </filter>
    <filter
       inkscape:collect="always"
       style="color-interpolation-filters:sRGB"
       id="filter4801-1"
       x="-0.07623145"
       width="1.152463"
       y="-0.18516555"
       height="1.370331">
      <feGaussianBlur
         inkscape:collect="always"
         stdDeviation="5.256843"
         id="feGaussianBlur4803-2" />
    </filter>
    <filter
       inkscape:collect="always"
       style="color-interpolation-filters:sRGB"
       id="filter4801-1-9"
       x="-0.07623145"
       width="1.152463"
       y="-0.18516555"
       height="1.370331">
      <feGaussianBlur
         inkscape:collect="always"
         stdDeviation="5.256843"
         id="feGaussianBlur4803-2-6" />
    </filter>
  </defs>
  <sodipodi:namedview
     id="base"
     pagecolor="#ffffff"
     bordercolor="#666666"
     borderopacity="1.0"
     inkscape:pageopacity="0.0"
     inkscape:pageshadow="2"
     inkscape:zoom="0.49497475"
     inkscape:cx="296.09266"
     inkscape:cy="584.81913"
     inkscape:document-units="mm"
     inkscape:current-layer="layer1"
     showgrid="false"
     inkscape:window-width="1440"
     inkscape:window-height="837"
     inkscape:window-x="-8"
     inkscape:window-y="-8"
     inkscape:window-maximized="1" />
  <metadata
     id="metadata5">
    <rdf:RDF>
      <cc:Work
         rdf:about="">
        <dc:format>image/svg+xml</dc:format>
        <dc:type
           rdf:resource="http://purl.org/dc/dcmitype/StillImage" />
        <dc:title></dc:title>
      </cc:Work>
    </rdf:RDF>
  </metadata>
  <g
     inkscape:label="Capa 1"
     inkscape:groupmode="layer"
     id="layer1">
    <rect
       style="opacity:1;fill:#0088aa;stroke-width:0.26458332;filter:url(#filter4801-1)"
       id="rect4579-0"
       width="165.50156"
       height="68.13591"
       x="29.934185"
       y="36.144939"
       transform="matrix(0.98861981,0,0,1.1751671,-1.6386049,64.419225)" />
    <rect
       style="opacity:1;fill:#ff6600;stroke-width:0.26458332;filter:url(#filter4801)"
       id="rect4579"
       width="165.50156"
       height="68.13591"
       x="29.934185"
       y="36.144939"
       transform="matrix(0.99207902,0,0,1.1238212,-2.3146582,-10.297465)" />
    <g
       sodipodi:type="inkscape:box3d"
       id="g32"
       inkscape:perspectiveID="#perspective74"
       inkscape:corner0="-0.36223725 : 0.12695133 : 0 : 1"
       inkscape:corner7="-0.42897987 : 0.033075607 : 0.25 : 1">
      <path
         sodipodi:type="inkscape:box3dside"
         id="path34"
         style="fill:#353564;fill-rule:evenodd;stroke:none;stroke-width:2.02482724;stroke-linejoin:round"
         inkscape:box3dsidetype="6"
         d="m 1631.1692,-878.82838 v 673.90598 l 250.0633,-142.09227 v -484.12949 z"
         points="1631.1692,-204.9224 1881.2325,-347.01467 1881.2325,-831.14416 1631.1692,-878.82838 " />
      <path
         sodipodi:type="inkscape:box3dside"
         id="path42"
         style="fill:#afafde;fill-rule:evenodd;stroke:none;stroke-width:2.02482724;stroke-linejoin:round"
         inkscape:box3dsidetype="13"
         d="m 1631.1692,-204.9224 246.1659,13.7812 195.4342,-157.83964 -191.5368,1.96617 z"
         points="1877.3351,-191.1412 2072.7693,-348.98084 1881.2325,-347.01467 1631.1692,-204.9224 " />
      <path
         sodipodi:type="inkscape:box3dside"
         id="path44"
         style="fill:#e9e9ff;fill-rule:evenodd;stroke:none;stroke-width:2.02482724;stroke-linejoin:round"
         inkscape:box3dsidetype="11"
         d="m 1881.2325,-831.14416 191.5368,-41.32217 v 523.48549 l -191.5368,1.96617 z"
         points="2072.7693,-872.46633 2072.7693,-348.98084 1881.2325,-347.01467 1881.2325,-831.14416 " />
      <path
         sodipodi:type="inkscape:box3dside"
         id="path36"
         style="fill:#4d4d9f;fill-rule:evenodd;stroke:none;stroke-width:2.02482724;stroke-linejoin:round"
         inkscape:box3dsidetype="5"
         d="m 1631.1692,-878.82838 246.1659,-64.98704 195.4342,71.34909 -191.5368,41.32217 z"
         points="1877.3351,-943.81542 2072.7693,-872.46633 1881.2325,-831.14416 1631.1692,-878.82838 " />
      <path
         sodipodi:type="inkscape:box3dside"
         id="path40"
         style="fill:#d7d7ff;fill-rule:evenodd;stroke:none;stroke-width:2.02482724;stroke-linejoin:round"
         inkscape:box3dsidetype="14"
         d="m 1877.3351,-943.81542 v 752.67422 l 195.4342,-157.83964 v -523.48549 z"
         points="1877.3351,-191.1412 2072.7693,-348.98084 2072.7693,-872.46633 1877.3351,-943.81542 " />
      <path
         sodipodi:type="inkscape:box3dside"
         id="path38"
         style="fill:#8686bf;fill-rule:evenodd;stroke:none;stroke-width:2.02482724;stroke-linejoin:round"
         inkscape:box3dsidetype="3"
         d="m 1631.1692,-878.82838 246.1659,-64.98704 v 752.67422 l -246.1659,-13.7812 z"
         points="1877.3351,-943.81542 1877.3351,-191.1412 1631.1692,-204.9224 1631.1692,-878.82838 " />
    </g>
    <rect
       style="opacity:1;fill:#37c8ab;stroke-width:0.26458332;filter:url(#filter4801-1-9)"
       id="rect4579-0-1"
       width="165.50156"
       height="68.13591"
       x="29.934185"
       y="36.144939"
       transform="matrix(0.98861981,0,0,1.1751671,-1.1094382,142.37363)" />
    <path
       style="opacity:1;fill:#000055;stroke-width:0.26458332"
       id="path4875"
       d="m 77.33163,68.803186 c 0.216323,1.315273 0.319333,2.642473 0.39661,3.971869 0.06617,1.229323 0.081,2.46048 0.08858,3.691292 0.0095,1.130242 -0.0028,2.260402 -0.0083,3.390596 0.06323,1.355876 -0.125013,2.69263 -0.299583,4.032168 -0.108402,1.276514 -0.32426,2.539005 -0.57809,3.793876 -0.322699,1.071047 -0.484595,2.172981 -0.671418,3.271814 -0.282514,0.924568 -0.405712,1.878991 -0.563877,2.828718 -0.25278,1.157473 -0.403855,2.330231 -0.488878,3.510764 0.02535,1.014357 -0.160465,1.99543 -0.351227,2.984477 -0.199758,0.96412 -0.508164,1.89543 -0.854152,2.81481 -0.319595,0.94024 -0.589253,1.89188 -0.838895,2.85234 -0.252405,0.80945 -0.640618,1.57804 -1.072539,2.30622 -0.384871,0.90923 -1.003639,1.63366 -1.690577,2.32876 -0.717296,0.62858 -1.374275,1.33219 -2.173814,1.85766 0,0 -7.360404,2.91942 -7.360404,2.91942 v 0 c 0.776672,-0.63497 -0.133633,0.0684 0.724702,-0.46751 0.565042,-0.35283 0.989322,-0.923 1.507191,-1.33532 0.70657,-0.54583 1.437801,-1.22457 1.756574,-2.07435 0.390835,-0.72122 0.856126,-1.40677 1.155838,-2.17103 0.37134,-0.91412 0.479623,-1.93561 0.829151,-2.86247 0.289496,-0.90903 0.700312,-1.76456 0.909161,-2.70223 0.157533,-0.97616 0.47574,-1.91669 0.412456,-2.91831 0.07153,-1.205689 0.196779,-2.407628 0.448853,-3.590654 0.186775,-0.950328 0.191624,-1.936308 0.52706,-2.85727 0.333574,-1.067231 0.280557,-2.240068 0.708208,-3.293229 0.340334,-1.206648 0.470112,-2.470282 0.604758,-3.714453 0.172855,-1.310574 0.45134,-2.61194 0.346676,-3.941683 -0.0037,-1.12726 -0.01193,-2.254475 -0.0035,-3.381764 0.0019,-1.224489 0.005,-2.44938 -0.0388,-3.67329 -0.05782,-1.282531 -0.134008,-2.572528 -0.424309,-3.827312 0,0 7.002602,-3.743909 7.002602,-3.743909 z"
       inkscape:connector-curvature="0" />
    <path
       style="opacity:1;fill:#000055;stroke-width:0.26458332"
       id="path4877"
       d="m 56.878211,87.739957 c 0.08232,-1.507408 -0.01582,-3.017856 0.07421,-4.524116 0.111099,-1.241911 0.488405,-2.442397 0.895565,-3.615004 0.355838,-1.024753 0.663326,-2.069746 1.076552,-3.073305 0.315362,-0.90514 0.730314,-1.762985 1.156634,-2.618518 0.389686,-0.777308 0.757717,-1.562846 1.260515,-2.274419 0.647335,-0.997037 1.442021,-1.883939 2.188406,-2.805692 0.729218,-0.849402 1.6228,-1.533194 2.464247,-2.266185 0.68952,-0.728131 1.556887,-1.237279 2.325346,-1.86994 0.803613,-0.694682 1.734478,-1.208215 2.612353,-1.796889 0.943597,-0.619683 1.863074,-1.270886 2.834928,-1.846868 24.262024,-13.878531 -4.309097,2.447533 1.411896,-0.833054 2.399861,-1.376151 4.785484,-2.778006 7.210126,-4.110011 2.149451,-1.180827 -8.472948,4.941946 -6.384435,3.656409 2.343012,-1.44219 4.765521,-2.751052 7.148279,-4.126579 0.838751,-0.253404 1.590551,-0.647898 2.458109,-0.814678 0.944949,-0.0062 1.814256,-0.272833 2.725751,-0.468405 0.978577,-0.174422 1.975225,-0.193011 2.966331,-0.211262 1.102402,-0.114012 2.155208,0.10527 3.232803,0.289554 0.943126,0.360493 1.81928,0.878764 2.704949,1.361139 0.870665,0.515763 1.741131,1.027157 2.612927,1.540616 0.730207,0.506925 1.433607,1.036963 2.162377,1.54692 0.68531,0.620194 1.2293,1.379625 1.86408,2.049651 0.58234,0.698981 1.03165,1.482487 1.43325,2.295051 0.37937,0.811435 0.80877,1.59902 1.23679,2.38646 0.40332,0.892643 0.65421,1.844341 0.96275,2.771793 0.47405,0.973691 0.81512,1.998642 1.23464,2.994779 0.4168,0.905468 0.43442,1.904061 0.61631,2.863956 0.25849,0.918678 0.38778,1.859582 0.46242,2.808579 0.0648,1.056306 0.0643,2.115153 0.0667,3.173013 -0.0154,1.063897 0.0339,2.129787 -0.0367,3.191893 -0.12894,0.913604 -0.3228,1.804749 -0.66389,2.662142 -0.32004,0.83633 -0.85158,1.545884 -1.36023,2.270308 -0.39056,0.705337 -0.96104,1.295056 -1.65178,1.707637 -2.539,1.744911 -1.22433,0.855231 -7.48985,4.282998 -0.128278,0.07018 -0.291102,0.0441 -0.428347,0.09454 -0.370919,0.136316 -0.766521,0.365228 -1.108024,0.564017 -0.14336,0.06219 -0.565217,0.265039 -0.430081,0.186566 15.800862,-9.175462 -0.427611,0.555165 -2.05578,1.175163 -0.166063,0.04488 -0.337524,0.07317 -0.498184,0.134646 -1.820297,0.6965 0.979442,-0.24956 -0.837118,0.387445 -0.450205,0.157872 -0.905087,0.22446 -1.35314,0.39315 -0.161282,0.04867 -0.329065,0.07951 -0.483849,0.146018 -0.329978,0.191993 -0.473228,0.290523 -0.826796,0.436031 -0.449628,0.185042 -0.911146,0.271158 -1.387576,0.351584 -1.029412,0.132548 -2.069674,0.130542 -3.105719,0.135003 -1.069673,1.56e-4 -2.139341,-0.0046 -3.209012,-0.007 -1.005313,0.10301 -1.954464,-0.217477 -2.934039,-0.375568 -0.996092,-0.131466 -1.956334,-0.44705 -2.890983,-0.806132 -0.915897,-0.243645 -1.622787,-0.913067 -2.372431,-1.456418 -0.526878,-0.659207 -1.199036,-1.192644 -1.700284,-1.871408 -0.417822,-0.706575 -0.763458,-1.446239 -1.134745,-2.177323 -0.389514,-0.824423 -0.456046,-1.738868 -0.699172,-2.607931 -0.112318,-0.53992 -0.361408,-1.034778 -0.5506,-1.549861 0,0 6.926839,-3.83767 6.926839,-3.83767 v 0 c 0.190061,0.535056 0.460544,1.041903 0.574447,1.600832 0.23558,0.822151 0.313074,1.674453 0.631939,2.469904 0.349417,0.68924 0.673153,1.386438 1.064879,2.053286 0.473207,0.601353 1.059942,1.123418 1.57231,1.687764 0.692198,0.527399 1.393018,1.042897 2.247403,1.274485 0.906507,0.334835 1.852022,0.548399 2.808465,0.684299 0.943038,0.179608 1.872969,0.356738 2.840926,0.275101 1.067829,0.0027 2.135727,0.0089 3.203519,-0.003 1.009272,-0.01992 2.02895,-0.03791 3.015086,-0.277833 0.910056,-0.268449 1.735439,-0.736124 2.651485,-0.989537 0.903915,-0.257085 1.765573,-0.621503 2.631072,-0.984522 2.44095,-1.337691 2.48585,-1.366952 -5.894427,3.438083 -0.268126,0.153739 0.515461,-0.341953 0.7834,-0.49602 7.322037,-4.210269 4.701347,-2.894404 7.589607,-4.333126 0.39387,-0.170257 0.78703,-0.318672 1.18558,-0.474078 0.12806,-0.04994 0.49475,-0.238389 0.37621,-0.168823 -5.738037,3.367405 -8.670985,4.889789 -6.090285,3.54461 0.5958,-0.467534 1.349915,-0.725244 1.793675,-1.388689 0.38585,-0.795203 1.07796,-1.373899 1.39661,-2.208337 0.42564,-0.773197 0.61687,-1.584674 0.77126,-2.449571 0.22413,-1.010724 0.0342,-2.07232 0.0977,-3.101014 -8e-4,-1.040101 0.002,-2.080877 -0.0487,-3.120038 -0.059,-0.915422 -0.16085,-1.826813 -0.42225,-2.710098 -0.20342,-0.908003 -0.16313,-1.866948 -0.53956,-2.737909 -0.41214,-1.016328 -0.73565,-2.064988 -1.24625,-3.040181 -0.31781,-0.878991 -0.55403,-1.788158 -0.923847,-2.64799 C 99.254708,68.754489 98.832698,67.95603 98.44253,67.142042 98.058217,66.40409 97.666444,65.66768 97.119375,65.033463 96.53907,64.385321 95.999854,63.686533 95.338843,63.12006 94.642306,62.602943 93.918922,62.132328 93.217356,61.622442 92.364397,61.091248 91.478972,60.619478 90.612975,60.110023 89.809999,59.651251 88.982358,59.172112 88.076668,58.960617 87.031242,58.786116 85.990471,58.723172 84.930154,58.80124 c -0.970106,0.04126 -1.943913,0.103193 -2.888748,0.344361 -0.898612,0.21695 -1.815242,0.267644 -2.712066,0.489489 -0.796544,0.268187 -1.586685,0.589717 -2.332056,0.974876 16.338108,-9.458155 0.03859,-0.01643 -0.778264,0.430686 -2.138124,1.170332 4.21722,-2.445414 6.325611,-3.668503 0.149148,-0.08652 -0.298823,0.172135 -0.447887,0.258802 -2.40238,1.39678 -4.815716,2.774902 -7.206438,4.191542 -2.063572,1.222785 4.149969,-2.406639 6.224953,-3.609956 -0.95581,0.585356 -1.937689,1.12396 -2.819469,1.822482 -0.901332,0.537001 -1.793954,1.105111 -2.641825,1.723593 -1.682255,1.249942 0.931111,-0.717579 -0.780806,0.662102 -0.502394,0.404894 -1.124678,0.65202 -1.575327,1.130051 -0.76631,0.821319 -1.709743,1.434026 -2.51215,2.214652 -0.791588,0.842066 -1.497486,1.776976 -2.197407,2.696977 -0.217855,0.349041 -0.541668,0.654532 -0.728181,1.018649 -0.19377,0.378283 -0.275227,0.817557 -0.587872,1.13492 -0.352094,0.888867 -0.924298,1.669166 -1.168532,2.606169 -0.425392,0.993571 -0.806757,2.000488 -1.117915,3.038475 -0.395751,1.130411 -0.829442,2.26496 -1.004496,3.45471 -0.186518,1.466537 -0.06917,2.958047 -0.05367,4.432773 0,0 -7.049402,3.591851 -7.049402,3.591851 z"
       inkscape:connector-curvature="0" />
    <path
       style="opacity:1;fill:#000055;stroke-width:0.26458332"
       id="path4879"
       d="m 110.01066,126.80369 c 0.75043,0.93469 1.37974,1.95145 2.05191,2.93991 0.55958,0.86063 0.88298,1.85278 1.17292,2.83116 0.28546,1.05339 0.34497,2.14521 0.38327,3.23019 0.0257,1.07371 0.0194,2.14786 0.0171,3.22179 -0.0131,1.04332 0.0542,2.08737 -0.1142,3.12052 -0.18542,1.09992 -0.4728,2.17435 -0.81937,3.23333 -0.48829,1.29484 -1.03439,2.56601 -1.51394,3.86446 -0.42627,1.13045 -0.98497,2.20212 -1.47367,3.3056 -0.38017,0.82404 -0.77602,1.63435 -1.22396,2.42406 -0.46242,0.90339 -0.99397,1.76502 -1.52835,2.6266 -0.47947,0.74774 -0.94738,1.50176 -1.37749,2.27932 -0.3244,0.74585 -0.86175,1.36558 -1.54878,1.79559 -0.10722,0.0759 -0.21443,0.15176 -0.32165,0.22764 0,0 -7.392009,2.85975 -7.392009,2.85975 v 0 c 0.113289,-0.0592 0.226576,-0.11849 0.339862,-0.17774 0.584981,-0.46586 1.329759,-0.72188 1.71898,-1.4202 0.326911,-0.84232 0.842629,-1.62101 1.36784,-2.35057 0.472957,-0.89024 1.088997,-1.68851 1.531397,-2.59492 0.39659,-0.81893 0.91926,-1.56392 1.23722,-2.4204 0.60316,-1.02995 0.98239,-2.19305 1.56876,-3.23805 0.44812,-1.29592 0.94043,-2.5774 1.49287,-3.83255 0.34002,-1.02807 0.67666,-2.05185 0.82546,-3.12964 0.23501,-0.99015 0.22383,-1.97462 0.19933,-2.99201 0.003,-1.06644 0.009,-2.13298 -0.006,-3.19936 -0.0239,-1.02262 -0.0534,-2.05372 -0.29457,-3.05301 -0.25267,-0.90607 -0.56371,-1.81805 -1.05257,-2.62457 -0.61695,-0.9618 -1.19788,-1.96025 -2.00362,-2.78237 0,0 6.76326,-4.14453 6.76326,-4.14453 z"
       inkscape:connector-curvature="0" />
    <path
       style="opacity:1;fill:#000055;stroke-width:0.26458332"
       id="path4881"
       d="m 85.202013,147.67572 c -0.0039,-1.38592 0.07041,-2.7566 0.247872,-4.13081 0.213291,-0.99304 0.449207,-1.99636 0.800987,-2.95132 0.22049,-0.79578 0.635952,-1.48655 1.073541,-2.17488 0.445966,-0.84641 1.026224,-1.60812 1.606558,-2.365 0.575448,-0.84481 1.295522,-1.56493 1.97711,-2.31986 0.675849,-0.7623 1.443098,-1.43096 2.21325,-2.09547 0.759706,-0.58183 1.424307,-1.28104 2.227648,-1.8033 2.757522,-2.30732 5.560681,-3.52984 8.959281,-5.44802 0.78048,-0.47085 1.66897,-0.69708 2.48267,-1.10853 1.02926,-0.36973 2.07686,-0.71581 3.1418,-0.97426 1.07751,-0.26738 2.13215,-0.56785 3.23973,-0.70613 1.07746,-0.10887 2.16166,-0.11075 3.24343,-0.11502 1.06017,0.0453 2.13937,-0.10598 3.18276,0.10824 1.00334,0.0703 1.75993,0.67005 2.63028,1.08433 0.7736,0.4908 1.53039,1.0022 2.3033,1.49231 0.67865,0.53195 1.32003,1.09017 1.886,1.74231 0.55883,0.7072 1.03798,1.46148 1.49714,2.23638 0.34839,0.81064 0.70954,1.62057 0.9431,2.47399 0.2463,0.76789 0.70692,1.42043 0.98321,2.17689 0.41629,0.95199 0.6398,1.95585 0.77531,2.98095 0.0428,0.99077 0.13864,1.95606 0.33911,2.92647 0.19218,0.98146 0.29102,1.98156 0.26154,2.98117 -0.0431,0.89116 -0.47072,1.60536 -0.97126,2.30856 -2.30893,2.24763 -6.52877,4.14687 -8.61305,5.36027 2.15117,-1.23971 4.29765,-2.48759 6.45352,-3.71912 0.11401,-0.0651 -0.21315,0.15426 -0.32713,0.21944 -2.38258,1.36247 -4.73805,2.7749 -7.16164,4.063 -2.19042,1.16417 8.58069,-4.98091 6.46183,-3.69106 -6.35209,3.86682 -4.57528,3.24431 -7.52456,4.22953 -0.88495,0.57423 -1.81045,0.94738 -2.84329,1.15726 -0.87414,0.44105 -1.82864,0.57826 -2.79142,0.65808 -1.04415,0.0632 -2.09088,0.0571 -3.13646,0.0565 -1.05761,0.0334 -2.07878,0.0226 -3.10928,-0.21603 -0.7713,-0.37394 -1.55586,-0.68919 -2.22296,-1.23644 0,0 6.70064,-4.23609 6.70064,-4.23609 v 0 c 0.61642,0.41368 1.29837,0.74352 2.01172,0.95005 0.99298,0.16362 2.00036,0.0812 3.00303,0.0979 1.03091,-0.007 2.06553,-0.009 3.09015,-0.13657 0.93663,-0.14871 1.81796,-0.44992 2.71885,-0.73671 0.98536,-0.3163 1.85625,-0.84111 2.79267,-1.27126 3.77259,-2.04017 -22.58005,12.20676 -6.08553,3.53026 2.42575,-1.276 4.70194,-2.82497 7.13478,-4.08739 2.19892,-1.14103 -4.29041,2.47815 -6.43233,3.72288 -0.11134,0.0647 0.22691,-0.12177 0.34037,-0.18266 2.3645,-1.383 4.729,-2.766 7.0935,-4.149 -2.14139,1.25254 -4.28278,2.50508 -6.42417,3.75761 0.10575,-0.0684 0.21933,-0.12591 0.31725,-0.20508 0.29798,-0.24095 0.5809,-0.50416 0.90477,-0.71456 0.10382,-0.0675 0.22469,-0.10405 0.33703,-0.15607 0.56863,-0.46726 1.04407,-1.13101 1.1981,-1.85676 0.18243,-0.90849 -0.024,-1.85771 -0.15019,-2.76469 -0.20317,-0.9939 -0.36043,-1.97249 -0.35498,-2.99205 -0.105,-0.97181 -0.28596,-1.92803 -0.71533,-2.81598 -0.26536,-0.78289 -0.77391,-1.44132 -1.01107,-2.23793 -0.19447,-0.79043 -0.54099,-1.52574 -0.83998,-2.27897 -0.43043,-0.73067 -0.86947,-1.44933 -1.41399,-2.10262 -0.54105,-0.57879 -1.13349,-1.10328 -1.77359,-1.57125 -0.73658,-0.4968 -1.4924,-0.96283 -2.25444,-1.4196 -0.79471,-0.42554 -1.55388,-0.81793 -2.47908,-0.86987 -1.03295,-0.0611 -2.06969,-0.0139 -3.10392,-0.0225 -1.06054,0.0155 -2.12533,0.0358 -3.17483,0.20503 -1.07655,0.19825 -2.1201,0.52149 -3.18408,0.7754 -1.03776,0.31324 -2.08821,0.60945 -3.06775,1.08103 -0.845014,0.34989 -1.688373,0.69793 -2.504444,1.11097 11.800344,-6.84557 6.832484,-4.4103 4.604924,-2.38286 -0.7611,0.62396 0.11924,-0.0566 -0.7246,0.46793 -0.57297,0.35618 -1.00428,0.92749 -1.54722,1.325 -0.807103,0.57379 -1.565796,1.26797 -2.227471,1.99941 -0.746837,0.67137 -1.387258,1.45437 -2.046873,2.2092 -0.514156,0.76635 -1.130741,1.46227 -1.613,2.24866 -0.321056,0.7369 -0.938144,1.29106 -1.121273,2.09349 -0.366328,0.92145 -0.620601,1.86483 -0.928372,2.81128 -0.191826,1.33212 -0.375327,2.65487 -0.23626,4.00516 0,0 -7.062938,3.59875 -7.062938,3.59875 z"
       inkscape:connector-curvature="0" />
    <path
       style="opacity:1;fill:#000055;stroke-width:0.26458332"
       id="path4885"
       d="m 137.63325,189.34553 c -1.21361,0.18473 -2.43678,0.28339 -3.66201,0.34557 -1.14205,0.0485 -2.28536,0.0498 -3.42822,0.0512 -0.94482,0.0294 -1.85445,0.32778 -2.80056,0.43294 -1.03637,0.0166 -2.02461,0.32279 -3.0467,0.4701 -1.02721,0.34894 -2.12027,0.6039 -3.08227,1.11108 -0.56639,0.36554 -1.24497,0.36689 -1.867,0.54162 -0.27803,0.0781 -0.53496,0.21847 -0.8077,0.31342 -0.55757,0.13476 -1.12954,0.22891 -1.63606,0.51629 -0.2255,0.12793 -0.41737,0.30959 -0.64196,0.43908 -0.12678,0.0489 -0.25356,0.0978 -0.38034,0.14663 0.25018,-0.0695 -1.07858,0.54132 -0.81769,0.38941 2.1206,-1.23484 8.47009,-4.9569 6.3944,-3.64797 -0.0986,0.0622 -17.68587,10.19711 -0.80699,0.46922 -2.39688,1.38348 -4.7806,2.79001 -7.19065,4.15043 -0.14777,0.0834 -0.32478,0.10283 -0.47701,0.17781 -0.1407,0.0693 -0.53316,0.33038 -0.39691,0.25269 9.9929,-5.69857 7.97427,-4.96855 5.77671,-3.16975 -0.61062,0.59983 -1.24618,1.17234 -1.79547,1.83095 -0.56023,0.72294 -0.95107,1.54671 -1.40411,2.33654 -0.44096,0.85317 -0.87123,1.701 -1.19277,2.60656 -0.40326,0.77669 -0.51886,1.64481 -0.77424,2.47017 -0.26902,0.911 -0.44982,1.84487 -0.67372,2.76834 -0.21529,0.95089 -0.35353,1.91353 -0.21605,2.88263 0.12335,0.97009 0.43066,1.89864 0.63719,2.85143 0.23641,0.97731 0.51629,1.9316 0.94721,2.84125 0.47586,0.9513 0.90184,1.93662 1.46296,2.84158 0.43367,0.72365 0.95432,1.41432 1.57078,1.99292 0.47292,0.55045 1.09598,1.00232 1.76804,1.2806 0.81633,0.38638 1.56198,0.8792 2.43697,1.12765 0.97803,0.35869 1.96299,0.71714 2.97088,0.98675 0.9435,0.18818 1.83501,0.56133 2.7073,0.95512 0.83622,0.32685 1.74041,0.36082 2.62652,0.3974 1.15406,0.0304 2.30863,0.0282 3.46298,0.0246 1.15046,0.0866 2.25916,-0.22214 3.38987,-0.37811 1.05632,-0.35392 2.15454,-0.44043 3.15995,-0.93147 1.00725,-0.3356 1.96873,-0.79334 2.98319,-1.10308 0.86193,-0.17571 1.62262,-0.64978 2.4462,-0.92824 0.82352,-0.53405 1.77173,-0.81523 2.6412,-1.26579 1.07892,-0.48621 2.1657,-0.93923 3.19941,-1.52228 2.45379,-1.20333 5.97387,-3.25259 -5.24112,3.0584 -0.92678,0.52153 0.88259,-0.64163 1.16965,-0.88794 0.66964,-0.5642 1.29376,-1.17743 1.92086,-1.78783 0.62524,-0.66217 1.10801,-1.43821 1.69168,-2.13473 0.53364,-0.58605 0.98807,-1.22558 1.42701,-1.8846 0.44781,-0.62256 0.98894,-1.16298 1.49587,-1.73476 0.57425,-0.49767 0.93109,-1.17863 1.4089,-1.76021 0.49333,-0.55877 0.80447,-1.23034 1.16734,-1.87231 0,0 7.2181,-3.24202 7.2181,-3.24202 v 0 c -0.3403,0.6728 -0.67111,1.35836 -1.10692,1.97342 -0.4327,0.64375 -0.96481,1.2113 -1.35412,1.88753 -0.58702,0.45868 -1.06893,1.06848 -1.5361,1.64113 -0.5708,0.56313 -0.81593,1.35861 -1.44445,1.86906 -0.53416,0.74714 -1.1701,1.41712 -1.67146,2.19177 -0.56118,0.70254 -1.26378,1.2543 -1.8803,1.90264 -0.50341,0.3876 -0.25877,0.17384 -0.72984,0.64593 -2.56812,2.13418 -5.70881,3.53217 -8.67662,5.06784 -1.06659,0.52197 -2.15313,0.99931 -3.22688,1.5064 -0.90323,0.3991 -1.79528,0.81951 -2.68872,1.23713 -0.79397,0.3697 -1.63345,0.63259 -2.46672,0.8983 -0.97669,0.38452 -1.97428,0.70705 -2.94195,1.11556 -1.06908,0.341 -2.18093,0.55149 -3.27637,0.78893 -1.14362,0.17965 -2.28228,0.3548 -3.44565,0.27715 -1.17093,-7.9e-4 -2.34326,0.0161 -3.51286,-0.0487 -0.96228,-0.0762 -1.92521,-0.19852 -2.80626,-0.62223 -0.84081,-0.37872 -1.72577,-0.65497 -2.61948,-0.87937 -1.00935,-0.31417 -2.01341,-0.64723 -3.00814,-1.00493 -0.86644,-0.3384 -1.6569,-0.82883 -2.50702,-1.20566 -0.70697,-0.39742 -1.38285,-0.87309 -1.90739,-1.49845 -0.6261,-0.65875 -1.19772,-1.37745 -1.64061,-2.1732 -0.55594,-0.9368 -1.0192,-1.92835 -1.50744,-2.90138 -0.47508,-0.96264 -0.75187,-1.98181 -1.03527,-3.01395 -0.19351,-0.96843 -0.53492,-1.89591 -0.66865,-2.87613 -0.1878,-1.05979 -0.12363,-2.10406 0.0943,-3.15972 0.2002,-0.9446 0.44865,-1.87177 0.62317,-2.82111 0.0867,-0.25984 0.21224,-0.50714 0.28026,-0.77247 0.15077,-0.58807 0.1483,-1.22319 0.46581,-1.76628 0.22029,-0.42942 0.30362,-0.87624 0.4982,-1.31679 0.48246,-1.09232 -0.0522,0.21121 0.47754,-0.85069 0.0824,-0.16528 0.13775,-0.34278 0.20663,-0.51417 0.41598,-0.81351 0.82454,-1.65366 1.35498,-2.39088 0.41425,-0.78042 1.0662,-1.39301 1.73187,-1.96477 0.22098,-0.2794 0.2885,-0.41663 0.59971,-0.605 2.35474,-1.42532 4.72087,-2.83186 7.09305,-4.22796 0.27795,-0.16358 1.14452,-0.59413 0.86596,-0.43158 -2.10544,1.22865 -4.21738,2.44612 -6.32607,3.66918 2.38977,-1.39009 4.80918,-2.73044 7.16931,-4.17028 2.09541,-1.27834 -8.54433,4.83402 -6.37495,3.68567 2.43715,-1.2901 4.78214,-2.74728 7.17878,-4.11117 0.38132,-0.217 0.79952,-0.36263 1.16813,-0.60316 0.73971,-0.41769 1.56414,-0.56901 2.36555,-0.82916 0.87792,-0.28603 1.79683,-0.44662 2.61866,-0.89521 1.05104,-0.36412 2.09268,-0.77938 3.1974,-0.95334 1.02015,-0.18562 2.03339,-0.38856 3.06979,-0.464 0.94635,-0.15788 1.88098,-0.41105 2.85044,-0.33703 1.12921,-0.004 2.25908,-0.0102 3.38673,-0.0761 1.22575,-0.0829 2.45361,-0.19783 3.65304,-0.47535 0,0 -6.33071,4.79327 -6.33071,4.79327 z"
       inkscape:connector-curvature="0" />
  </g>
</svg>
